<?xml version="1.0" encoding="UTF-8" standalone="no"?>
<svg width="894.644mm" height="468.842mm"
 viewBox="0 0 2536 1329"
 xmlns="http://www.w3.org/2000/svg" xmlns:xlink="http://www.w3.org/1999/xlink"  version="1.2" baseProfile="tiny">
<title>Qt SVG Document</title>
<desc>Generated with Qt</desc>
<defs>
</defs>
<g fill="none" stroke="black" stroke-width="1" fill-rule="evenodd" stroke-linecap="square" stroke-linejoin="bevel" >

<g fill="#efefef" fill-opacity="1" stroke="none" transform="matrix(1,0,0,1,0,0)"
font-family="Sans Serif" font-size="9" font-weight="400" font-style="normal" 
>
<rect x="0" y="0" width="2536" height="1329"/>
</g>

<g fill="none" stroke="#000000" stroke-opacity="1" stroke-width="1" stroke-linecap="square" stroke-linejoin="bevel" transform="matrix(1,0,0,1,0,0)"
font-family="Sans Serif" font-size="9" font-weight="400" font-style="normal" 
>
</g>

<g fill="none" stroke="#000000" stroke-opacity="1" stroke-width="1" stroke-linecap="square" stroke-linejoin="bevel" transform="matrix(0.742268,0,0,0.742268,0,0)"
font-family="Sans Serif" font-size="9" font-weight="400" font-style="normal" 
>
</g>

<g fill="none" stroke="#000000" stroke-opacity="1" stroke-width="1" stroke-linecap="square" stroke-linejoin="bevel" transform="matrix(0.742268,0,0,0.742268,0,0)"
font-family="Sans Serif" font-size="9" font-weight="400" font-style="normal" 
>
</g>

<g fill="#ffffff" fill-opacity="1" stroke="none" transform="matrix(0.742268,0,0,0.742268,0,0)"
font-family="Sans Serif" font-size="9" font-weight="400" font-style="normal" 
>
<rect x="59" y="2" width="3355.56" height="1760.46"/>
</g>

<g fill="none" stroke="#000000" stroke-opacity="1" stroke-width="1" stroke-linecap="square" stroke-linejoin="bevel" transform="matrix(0.742268,0,0,0.742268,0,0)"
font-family="Sans Serif" font-size="9" font-weight="400" font-style="normal" 
>
</g>

<g fill="none" stroke="#000000" stroke-opacity="1" stroke-width="1" stroke-linecap="square" stroke-linejoin="bevel" transform="matrix(0.742268,0,0,0.742268,0,0)"
font-family="Sans Serif" font-size="9" font-weight="400" font-style="normal" 
>
</g>

<g fill="none" stroke="#000000" stroke-opacity="1" stroke-width="1" stroke-linecap="square" stroke-linejoin="bevel" transform="matrix(0.742268,0,0,0.742268,0,0)"
font-family="Sans Serif" font-size="9" font-weight="400" font-style="normal" 
>
</g>

<g fill="none" stroke="#ff0056" stroke-opacity="1" stroke-width="1" stroke-linecap="square" stroke-linejoin="bevel" transform="matrix(0.742268,0,0,0.742268,0,0)"
font-family="Sans Serif" font-size="9" font-weight="400" font-style="normal" 
>
<polyline fill="none" vector-effect="non-scaling-stroke" points="60.5239,1456.09 62.0992,1456.41 63.6745,1453.19 65.2498,1452.86 66.825,1455.12 68.4003,1451.57 69.9756,1446.41 71.5509,1446.41 73.1262,1448.02 74.7015,1448.35 76.2768,1443.51 77.852,1446.41 79.4273,1440.28 81.0026,1443.18 82.5779,1442.54 84.1532,1438.34 85.7285,1440.6 87.3038,1441.25 88.8791,1439.96 90.4543,1439.31 92.0296,1440.28 93.6049,1438.34 95.1802,1438.34 96.7555,1437.37 98.3308,1437.7 99.9061,1432.53 101.481,1433.82 103.057,1427.69 104.632,1427.69 106.207,1430.6 107.782,1431.24 109.358,1427.37 110.933,1429.31 112.508,1427.05 114.084,1430.92 115.659,1422.85 117.234,1425.76 118.809,1423.82 120.385,1423.17 121.96,1419.62 123.535,1417.04 125.111,1417.69 126.686,1416.72 128.261,1412.2 129.836,1410.27 131.412,1410.59 132.987,1409.3 134.562,1404.46 136.138,1401.88 137.713,1404.78 139.288,1402.84 140.864,1402.2 142.439,1399.29 144.014,1399.29 145.589,1396.71 147.165,1400.58 148.74,1400.26 150.315,1398.33 151.891,1397.03 153.466,1399.62 155.041,1396.39 156.616,1399.94 158.192,1394.78 159.767,1394.13 161.342,1393.81 162.918,1392.19 164.493,1390.26 166.068,1390.26 167.643,1394.13 169.219,1391.23 170.794,1394.45 172.369,1392.52 173.945,1392.19 175.52,1393.48 177.095,1391.87 178.67,1389.61 180.246,1389.93 181.821,1389.93 183.396,1389.93 184.972,1389.93 186.547,1387.68 188.122,1384.77 189.697,1387.68 191.273,1385.42 192.848,1383.16 194.423,1379.28 195.999,1383.8 197.574,1381.87 199.149,1380.58 200.724,1376.06 202.3,1377.67 203.875,1375.41 205.45,1375.74 207.026,1373.48 208.601,1371.22 210.176,1370.57 211.751,1367.34 213.327,1369.28 214.902,1367.02 216.477,1367.34 218.053,1367.99 219.628,1366.05 221.203,1366.38 222.778,1365.73 224.354,1363.79 225.929,1366.05 227.504,1363.15 229.08,1362.83 230.655,1365.41 232.23,1361.86 233.805,1360.24 235.381,1356.37 236.956,1359.6 238.531,1357.99 240.107,1363.79 241.682,1354.11 243.257,1353.79 244.832,1354.76 246.408,1356.05 247.983,1357.99 249.558,1351.21 251.134,1354.44 252.709,1352.82 254.284,1352.18 255.859,1351.53 257.435,1350.56 259.01,1347.34 260.585,1349.59 262.161,1348.3 263.736,1348.3 265.311,1347.66 266.886,1344.75 268.462,1347.34 270.037,1345.08 271.612,1343.46 273.188,1344.75 274.763,1345.72 276.338,1342.82 277.913,1340.88 279.489,1339.59 281.064,1343.46 282.639,1339.91 284.215,1344.11 285.79,1336.36 287.365,1339.27 288.94,1338.95 290.516,1338.95 292.091,1334.1 293.666,1340.88 295.242,1337.33 296.817,1333.78 298.392,1335.72 299.967,1333.46 301.543,1336.36 303.118,1333.78 304.693,1335.07 306.269,1331.2 307.844,1331.85 309.419,1333.46 310.994,1329.59 312.57,1328.3 314.145,1328.94 315.72,1327.33 317.296,1331.52 318.871,1326.36 320.446,1326.36 322.021,1320.55 323.597,1322.49 325.172,1325.07 326.747,1322.16 328.323,1321.52 329.898,1319.58 331.473,1317.97 333.048,1316.36 334.624,1318.61 336.199,1309.58 337.774,1309.58 339.35,1310.22 340.925,1311.51 342.5,1307.32 344.075,1307 345.651,1306.35 347.226,1305.06 348.801,1301.83 350.377,1303.45 351.952,1304.09 353.527,1301.83 355.102,1301.19 356.678,1298.61 358.253,1296.35 359.828,1296.35 361.404,1296.67 362.979,1291.83 364.554,1295.38 366.129,1288.6 367.705,1291.83 369.28,1289.89 370.855,1292.47 372.431,1290.21 374.006,1290.54 375.581,1289.89 377.156,1288.92 378.732,1287.31 380.307,1287.31 381.882,1289.57 383.458,1286.34 385.033,1287.96 386.608,1285.05 388.183,1284.41 389.759,1282.79 391.334,1281.5 392.909,1276.34 394.485,1275.37 396.06,1274.4 397.635,1270.85 399.21,1271.17 400.786,1273.76 402.361,1267.3 403.936,1266.66 405.512,1264.4 407.087,1263.75 408.662,1264.72 410.237,1263.11 411.813,1265.37 413.388,1263.43 414.963,1257.3 416.539,1261.82 418.114,1259.23 419.689,1257.62 421.264,1257.3 422.84,1261.17 424.415,1255.36 425.99,1256.33 427.566,1255.04 429.141,1250.2 430.716,1255.36 432.291,1253.1 433.867,1252.13 435.442,1254.07 437.017,1252.78 438.593,1252.13 440.168,1251.17 441.743,1249.88 443.318,1255.36 444.894,1249.55 446.469,1250.52 448.044,1250.2 449.62,1250.52 451.195,1248.58 452.77,1248.91 454.345,1247.29 455.921,1243.42 457.496,1245.68 459.071,1245.68 460.647,1241.81 462.222,1243.1 463.797,1242.78 465.372,1241.16 466.948,1240.84 468.523,1246.97 470.098,1243.42 471.674,1241.48 473.249,1238.58 474.824,1235.68 476.399,1238.26 477.975,1238.58 479.55,1237.61 481.125,1236 482.701,1235.68 484.276,1237.93 485.851,1236 487.426,1236.32 489.002,1234.38 490.577,1232.13 492.152,1228.58 493.728,1227.93 495.303,1226.32 496.878,1228.25 498.453,1226.32 500.029,1225.03 501.604,1222.77 503.179,1221.48 504.755,1219.86 506.33,1219.86 507.905,1217.6 509.481,1218.25 511.056,1215.67 512.631,1213.73 514.206,1211.79 515.782,1211.79 517.357,1211.47 518.932,1213.41 520.508,1211.15 522.083,1207.6 523.658,1210.83 525.233,1207.92 526.809,1207.6 528.384,1208.89 529.959,1205.99 531.535,1209.21 533.11,1209.21 534.685,1209.54 536.26,1205.34 537.836,1207.28 539.411,1207.28 540.986,1205.99 542.562,1207.92 544.137,1205.66 545.712,1200.18 547.287,1197.92 548.863,1198.89 550.438,1201.14 552.013,1198.24 553.589,1194.37 555.164,1194.05 556.739,1197.27 558.314,1193.72 559.89,1190.17 561.465,1193.72 563.04,1193.4 564.616,1189.2 566.191,1190.82 567.766,1188.88 569.341,1194.05 570.917,1185.33 572.492,1189.2 574.067,1189.53 575.643,1187.59 577.218,1188.24 578.793,1186.95 580.368,1184.69 581.944,1188.56 583.519,1185.65 585.094,1188.56 586.67,1187.91 588.245,1180.81 589.82,1184.36 591.395,1177.91 592.971,1179.52 594.546,1180.17 596.121,1179.85 597.697,1176.94 599.272,1179.85 600.847,1177.91 602.422,1173.71 603.998,1176.3 605.573,1173.71 607.148,1173.71 608.724,1175.97 610.299,1170.49 611.874,1167.58 613.449,1164.68 615.025,1164.68 616.6,1165.65 618.175,1162.42 619.751,1159.19 621.326,1159.84 622.901,1158.55 624.476,1158.55 626.052,1154.03 627.627,1152.09 629.202,1152.41 630.778,1151.12 632.353,1147.57 633.928,1151.45 635.503,1143.38 637.079,1144.67 638.654,1140.15 640.229,1136.92 641.805,1131.76 643.38,1131.76 644.955,1127.57 646.53,1123.69 648.106,1124.34 649.681,1121.43 651.256,1124.66 652.832,1116.27 654.407,1114.66 655.982,1112.07 657.557,1110.78 659.133,1108.85 660.708,1106.91 662.283,1104.97 663.859,1103.68 665.434,1101.75 667.009,1101.75 668.584,1099.17 670.16,1101.75 671.735,1098.84 673.31,1095.29 674.886,1094 676.461,1092.07 678.036,1091.1 679.611,1087.55 681.187,1088.52 682.762,1081.42 684.337,1082.38 685.913,1078.19 687.488,1075.93 689.063,1076.25 690.638,1071.09 692.214,1068.51 693.789,1070.44 695.364,1069.48 696.94,1069.15 698.515,1068.19 700.09,1062.7 701.665,1064.31 703.241,1057.54 704.816,1062.38 706.391,1054.31 707.967,1056.89 709.542,1053.66 711.117,1052.05 712.692,1051.4 714.268,1053.66 715.843,1044.95 717.418,1040.75 718.994,1037.53 720.569,1040.11 722.144,1039.14 723.719,1041.4 725.295,1039.79 726.87,1037.85 728.445,1038.17 730.021,986.215 731.596,1036.24 733.171,1032.69 734.746,966.529 736.322,1031.72 737.897,969.756 739.472,1030.75 741.048,950.716 742.623,1028.49 744.198,1030.75 745.773,1028.49 747.349,1027.85 748.924,1024.62 750.499,1027.85 752.075,1022.04 753.65,900.049 755.225,1024.3 756.8,1022.68 758.376,896.177 759.951,1013.32 761.526,1017.2 763.102,1012.68 764.677,1013 766.252,1011.71 767.827,1011.39 769.403,1009.77 770.978,1006.55 772.553,1006.87 774.129,1001.38 775.704,999.124 777.279,1004.61 778.854,1004.29 780.43,1004.61 782.005,1000.74 783.58,1000.74 785.156,1000.41 786.731,1000.74 788.306,998.801 789.881,998.801 791.457,996.865 793.032,998.478 794.607,997.187 796.183,1004.29 797.758,1002.35 799.333,995.251 800.908,996.219 802.484,996.219 804.059,995.896 805.634,995.896 807.21,995.251 808.785,991.701 810.36,992.992 811.935,992.669 813.511,987.183 815.086,990.733 816.661,985.247 818.237,983.633 819.812,983.956 821.387,982.02 822.962,978.792 824.538,978.47 826.113,975.565 827.688,974.597 829.264,979.438 830.839,971.047 832.414,969.111 833.989,963.947 835.565,962.334 837.14,959.752 838.715,959.107 840.291,958.784 841.866,959.752 843.441,954.266 845.016,954.589 846.592,951.684 848.167,952.652 849.742,949.102 851.318,950.393 852.893,946.198 854.468,948.134 856.043,942.003 857.619,946.198 859.194,946.198 860.769,945.23 862.345,941.357 863.92,941.034 865.495,939.421 867.07,936.839 868.646,937.807 870.221,947.812 871.796,931.03 873.372,928.448 874.947,935.226 876.522,932.321 878.097,931.353 879.673,925.867 881.248,926.189 882.823,923.285 884.399,921.349 885.974,918.767 887.549,917.476 889.125,916.185 890.7,916.185 892.275,913.281 893.85,912.635 895.426,910.054 897.001,908.763 898.576,909.731 900.152,908.44 901.727,907.472 903.302,905.858 904.877,903.599 906.453,905.858 908.028,903.599 909.603,901.017 911.179,903.276 912.754,901.986 914.329,897.468 915.904,898.436 917.48,897.145 919.055,900.049 920.63,895.531 922.206,898.758 923.781,890.69 925.356,893.595 926.931,887.786 928.507,892.627 930.082,891.981 931.657,889.722 933.233,887.786 934.808,888.754 936.383,888.431 937.958,890.368 939.534,886.172 941.109,884.882 942.684,885.204 944.26,882.945 945.835,881.654 947.41,879.718 948.985,878.427 950.561,877.459 952.136,881.654 953.711,878.104 955.287,878.427 956.862,877.782 958.437,875.523 960.012,875.523 961.588,874.232 963.163,875.2 964.738,874.555 966.314,874.555 967.889,871.327 969.464,876.491 971.039,875.523 972.615,873.586 974.19,872.296 975.765,872.941 977.341,873.264 978.916,870.037 980.491,869.068 982.066,866.164 983.642,867.778 985.217,872.296 986.792,864.873 988.368,866.487 989.943,864.873 991.518,867.455 993.093,864.55 994.669,863.905 996.244,862.614 997.819,863.905 999.395,862.291 1000.97,862.614 1002.55,861.323 1004.12,859.71 1005.7,859.064 1007.27,863.582 1008.85,861.323 1010.42,857.451 1012,857.773 1013.57,859.064 1015.15,857.128 1016.72,857.451 1018.3,854.869 1019.87,854.546 1021.45,849.705 1023.02,852.287 1024.6,848.737 1026.17,849.06 1027.75,846.801 1029.32,843.896 1030.9,848.414 1032.48,840.992 1034.05,840.024 1035.63,844.542 1037.2,843.574 1038.78,843.251 1040.35,839.701 1041.93,845.51 1043.5,841.637 1045.08,840.347 1046.65,840.992 1048.23,839.056 1049.8,829.374 1051.38,830.02 1052.95,832.924 1054.53,826.147 1056.1,827.438 1057.68,824.856 1059.26,825.179 1060.83,820.015 1062.41,816.788 1063.98,814.529 1065.56,816.465 1067.13,812.916 1068.71,812.593 1070.28,810.657 1071.86,809.366 1073.43,808.72 1075.01,808.075 1076.58,806.138 1078.16,806.138 1079.73,804.202 1081.31,803.879 1082.88,803.879 1084.46,803.234 1086.04,803.879 1087.61,803.557 1089.19,664.143 1090.76,664.465 1092.34,664.143 1093.91,662.852 1095.49,663.497 1097.06,663.82 1098.64,664.465 1100.21,663.497 1101.79,660.593 1103.36,659.625 1104.94,657.043 1106.51,654.138 1108.09,661.561 1109.66,658.657 1111.24,655.429 1112.82,653.493 1114.39,654.784 1115.97,652.202 1117.54,654.138 1119.12,651.557 1120.69,653.493 1122.27,655.107 1123.84,655.429 1125.42,648.975 1126.99,650.266 1128.57,646.393 1130.14,645.748 1131.72,642.843 1133.29,640.584 1134.87,641.875 1136.44,641.23 1138.02,638.325 1139.6,638.003 1141.17,633.162 1142.75,635.421 1144.32,629.935 1145.9,632.839 1147.47,627.998 1149.05,630.257 1150.62,632.839 1152.2,630.58 1153.77,627.03 1155.35,626.385 1156.92,630.903 1158.5,626.707 1160.07,629.935 1161.65,625.739 1163.22,630.257 1164.8,626.385 1166.37,627.03 1167.95,621.867 1169.53,624.126 1171.1,624.126 1172.68,628.321 1174.25,622.512 1175.83,623.158 1177.4,621.221 1178.98,616.058 1180.55,621.221 1182.13,619.608 1183.7,620.899 1185.28,614.767 1186.85,617.994 1188.43,615.09 1190,616.703 1191.58,613.476 1193.15,614.122 1194.73,613.476 1196.31,612.185 1197.88,614.767 1199.46,610.249 1201.03,610.572 1202.61,607.99 1204.18,608.635 1205.76,607.022 1207.33,610.249 1208.91,605.408 1210.48,602.826 1212.06,604.44 1213.63,600.89 1215.21,604.117 1216.78,598.308 1218.36,601.213 1219.93,593.145 1221.51,593.79 1223.09,591.209 1224.66,591.531 1226.24,588.304 1227.81,586.691 1229.39,582.495 1230.96,583.141 1232.54,583.463 1234.11,583.786 1235.69,578.3 1237.26,583.463 1238.84,581.204 1240.41,581.527 1241.99,580.236 1243.56,578.3 1245.14,579.913 1246.71,579.268 1248.29,576.041 1249.87,576.041 1251.44,576.041 1253.02,572.491 1254.59,571.845 1256.17,569.264 1257.74,568.618 1259.32,564.1 1260.89,567.005 1262.47,570.555 1264.04,567.005 1265.62,566.682 1267.19,566.359 1268.77,568.296 1270.34,564.746 1271.92,562.809 1273.49,563.778 1275.07,562.809 1276.64,560.873 1278.22,564.1 1279.8,557.646 1281.37,559.26 1282.95,557.969 1284.52,557.323 1286.1,554.741 1287.67,552.805 1289.25,552.16 1290.82,551.192 1292.4,547.964 1293.97,544.737 1295.55,549.578 1297.12,546.028 1298.7,546.996 1300.27,544.092 1301.85,544.414 1303.42,544.737 1305,541.833 1306.58,539.574 1308.15,539.574 1309.73,538.283 1311.3,536.024 1312.88,532.797 1314.45,531.506 1316.03,530.215 1317.6,531.506 1319.18,529.247 1320.75,528.279 1322.33,527.31 1323.9,526.665 1325.48,525.374 1327.05,522.47 1328.63,524.083 1330.2,522.792 1331.78,518.597 1333.36,516.338 1334.93,514.724 1336.51,513.111 1338.08,511.175 1339.66,509.238 1341.23,508.593 1342.81,508.27 1344.38,503.429 1345.96,507.947 1347.53,502.784 1349.11,503.752 1350.68,501.816 1352.26,502.138 1353.83,499.879 1355.41,500.848 1356.98,496.652 1358.56,496.33 1360.14,491.812 1361.71,490.521 1363.29,486.648 1364.86,488.584 1366.44,486.325 1368.01,486.003 1369.59,482.775 1371.16,484.389 1372.74,482.13 1374.31,480.839 1375.89,479.871 1377.46,476.644 1379.04,475.998 1380.61,474.062 1382.19,476.321 1383.76,475.676 1385.34,479.871 1386.91,477.612 1388.49,475.03 1390.07,473.739 1391.64,473.417 1393.22,472.448 1394.79,473.417 1396.37,471.158 1397.94,467.608 1399.52,469.221 1401.09,468.253 1402.67,468.576 1404.24,466.317 1405.82,465.671 1407.39,463.735 1408.97,461.799 1410.54,460.831 1412.12,457.926 1413.69,455.667 1415.27,454.699 1416.85,450.826 1418.42,448.567 1420,446.308 1421.57,446.308 1423.15,442.436 1424.72,440.499 1426.3,442.436 1427.87,440.822 1429.45,439.209 1431.02,434.368 1432.6,432.431 1434.17,432.754 1435.75,428.882 1437.32,428.882 1438.9,427.913 1440.47,425.332 1442.05,425.009 1443.63,424.364 1445.2,422.427 1446.78,421.459 1448.35,419.523 1449.93,415.65 1451.5,416.296 1453.08,414.359 1454.65,414.037 1456.23,414.037 1457.8,408.873 1459.38,406.937 1460.95,410.487 1462.53,409.841 1464.1,403.71 1465.68,403.387 1467.25,402.741 1468.83,402.741 1470.41,399.837 1471.98,400.482 1473.56,395.642 1475.13,397.255 1476.71,397.255 1478.28,393.06 1479.86,395.642 1481.43,388.865 1483.01,396.287 1484.58,395.319 1486.16,386.283 1487.73,387.251 1489.31,390.155 1490.88,388.542 1492.46,383.701 1494.03,385.315 1495.61,385.315 1497.19,385.315 1498.76,383.056 1500.34,382.733 1501.91,384.992 1503.49,381.119 1505.06,382.733 1506.64,378.215 1508.21,375.956 1509.79,374.342 1511.36,374.342 1512.94,369.502 1514.51,364.661 1516.09,358.206 1517.66,355.625 1519.24,354.011 1520.81,354.011 1522.39,357.561 1523.96,349.816 1525.54,349.17 1527.12,348.848 1528.69,345.298 1530.27,340.134 1531.84,344.975 1533.42,339.166 1534.99,334.971 1536.57,337.553 1538.14,330.13 1539.72,333.68 1541.29,326.58 1542.87,332.389 1544.44,328.194 1546.02,324.967 1547.59,323.353 1549.17,322.385 1550.74,317.867 1552.32,321.417 1553.9,318.835 1555.47,319.48 1557.05,312.703 1558.62,314.962 1560.2,315.93 1561.77,313.349 1563.35,313.026 1564.92,312.058 1566.5,310.767 1568.07,304.313 1569.65,307.862 1571.22,305.926 1572.8,303.344 1574.37,303.344 1575.95,297.536 1577.52,297.213 1579.1,299.149 1580.68,294.308 1582.25,296.567 1583.83,301.408 1585.4,297.858 1586.98,297.858 1588.55,287.209 1590.13,292.049 1591.7,288.499 1593.28,291.404 1594.85,290.436 1596.43,288.177 1598,290.113 1599.58,286.886 1601.15,283.981 1602.73,282.045 1604.3,283.659 1605.88,282.045 1607.46,282.045 1609.03,277.527 1610.61,276.559 1612.18,277.204 1613.76,278.495 1615.33,276.882 1616.91,274.945 1618.48,271.073 1620.06,266.555 1621.63,268.814 1623.21,270.427 1624.78,268.491 1626.36,266.232 1627.93,265.586 1629.51,270.427 1631.08,263.65 1632.66,264.941 1634.23,262.682 1635.81,265.264 1637.39,261.714 1638.96,263.005 1640.54,264.296 1642.11,263.973 1643.69,265.586 1645.26,259.132 1646.84,263.65 1648.41,259.455 1649.99,263.005 1651.56,260.1 1653.14,262.037 1654.71,260.423 1656.29,260.1 1657.86,264.296 1659.44,260.1 1661.01,257.841 1662.59,257.841 1664.17,260.423 1665.74,257.519 1667.32,262.682 1668.89,257.519 1670.47,258.164 1672.04,257.519 1673.62,258.487 1675.19,259.455 1676.77,258.487 1678.34,257.841 1679.92,257.519 1681.49,256.55 1683.07,262.037 1684.64,255.26 1686.22,258.164 1687.79,258.809 1689.37,257.841 1690.95,257.196 1692.52,257.196 1694.1,258.487 1695.67,259.778 1697.25,256.228 1698.82,260.423 1700.4,257.519 1701.97,256.55 1703.55,254.291 1705.12,258.164 1706.7,254.937 1708.27,260.423 1709.85,256.228 1711.42,256.228 1713,256.55 1714.57,258.809 1716.15,257.196 1717.73,260.423 1719.3,258.164 1720.88,257.196 1722.45,261.391 1724.03,259.132 1725.6,257.519 1727.18,254.614 1728.75,260.423 1730.33,255.582 1731.9,261.068 1733.48,257.841 1735.05,256.55 1736.63,257.841 1738.2,256.873 1739.78,257.841 1741.35,254.614 1742.93,261.391 1744.5,253.001 1746.08,255.582 1747.66,260.423 1749.23,256.873 1750.81,258.487 1752.38,257.841 1753.96,253.969 1755.53,260.423 1757.11,253.323 1758.68,259.455 1760.26,258.164 1761.83,257.196 1763.41,258.487 1764.98,256.873 1766.56,262.359 1768.13,259.455 1769.71,254.937 1771.28,256.228 1772.86,259.132 1774.44,257.196 1776.01,257.196 1777.59,245.578 1779.16,259.455 1780.74,256.873 1782.31,259.132 1783.89,252.355 1785.46,258.809 1787.04,257.196 1788.61,255.582 1790.19,258.809 1791.76,259.455 1793.34,254.291 1794.91,257.519 1796.49,258.164 1798.06,255.26 1799.64,256.873 1801.22,256.873 1802.79,257.519 1804.37,257.841 1805.94,259.778 1807.52,258.164 1809.09,252.678 1810.67,258.487 1812.24,256.228 1813.82,255.905 1815.39,261.391 1816.97,255.905 1818.54,258.809 1820.12,260.1 1821.69,259.455 1823.27,257.519 1824.84,258.164 1826.42,255.905 1828,258.809 1829.57,259.132 1831.15,254.291 1832.72,259.778 1834.3,255.582 1835.87,257.196 1837.45,255.905 1839.02,260.746 1840.6,259.778 1842.17,257.519 1843.75,259.455 1845.32,258.809 1846.9,262.682 1848.47,259.778 1850.05,258.164 1851.62,258.809 1853.2,259.455 1854.78,256.873 1856.35,256.55 1857.93,257.519 1859.5,259.132 1861.08,255.905 1862.65,263.005 1864.23,258.809 1865.8,258.809 1867.38,257.519 1868.95,257.196 1870.53,258.487 1872.1,259.132 1873.68,261.068 1875.25,261.068 1876.83,263.005 1878.4,260.746 1879.98,260.1 1881.55,264.296 1883.13,263.973 1884.71,260.1 1886.28,268.491 1887.86,265.264 1889.43,267.846 1891.01,272.041 1892.58,273.654 1894.16,276.236 1895.73,280.109 1897.31,283.336 1898.88,282.045 1900.46,288.177 1902.03,287.531 1903.61,291.727 1905.18,293.663 1906.76,292.049 1908.33,295.277 1909.91,297.213 1911.49,301.085 1913.06,296.89 1914.64,304.958 1916.21,304.313 1917.79,303.344 1919.36,309.799 1920.94,309.153 1922.51,308.185 1924.09,314.962 1925.66,308.185 1927.24,313.994 1928.81,317.867 1930.39,316.576 1931.96,317.867 1933.54,320.126 1935.11,323.03 1936.69,320.126 1938.27,319.158 1939.84,323.03 1941.42,325.935 1942.99,327.871 1944.57,325.935 1946.14,327.226 1947.72,325.612 1949.29,329.485 1950.87,326.903 1952.44,334.325 1954.02,337.875 1955.59,336.584 1957.17,338.521 1958.74,340.457 1960.32,344.007 1961.89,340.78 1963.47,344.007 1965.05,341.425 1966.62,346.911 1968.2,345.298 1969.77,347.234 1971.35,344.007 1972.92,342.716 1974.5,349.17 1976.07,347.557 1977.65,345.943 1979.22,347.879 1980.8,348.525 1982.37,349.493 1983.95,346.266 1985.52,351.752 1987.1,350.784 1988.67,350.461 1990.25,347.879 1991.82,350.784 1993.4,349.17 1994.98,353.688 1996.55,351.752 1998.13,355.302 1999.7,356.916 2001.28,357.884 2002.85,355.625 2004.43,359.175 2006,359.82 2007.58,361.111 2009.15,360.788 2010.73,360.788 2012.3,361.111 2013.88,362.724 2015.45,364.015 2017.03,364.338 2018.6,366.597 2020.18,372.406 2021.76,369.824 2023.33,365.952 2024.91,366.92 2026.48,374.665 2028.06,371.115 2029.63,378.86 2031.21,375.31 2032.78,372.083 2034.36,374.665 2035.93,375.31 2037.51,379.829 2039.08,376.279 2040.66,381.442 2042.23,380.474 2043.81,376.601 2045.38,377.569 2046.96,376.924 2048.54,385.315 2050.11,381.442 2051.69,383.701 2053.26,384.669 2054.84,384.992 2056.41,386.606 2057.99,387.251 2059.56,386.928 2061.14,385.96 2062.71,388.542 2064.29,389.51 2065.86,389.51 2067.44,389.51 2069.01,392.737 2070.59,394.028 2072.16,392.737 2073.74,398.546 2075.32,392.092 2076.89,396.933 2078.47,395.964 2080.04,398.546 2081.62,400.805 2083.19,400.482 2084.77,399.192 2086.34,404.355 2087.92,400.16 2089.49,402.419 2091.07,399.192 2092.64,404.678 2094.22,409.196 2095.79,404.678 2097.37,410.164 2098.94,409.519 2100.52,408.55 2102.09,410.487 2103.67,411.132 2105.25,407.905 2106.82,405.969 2108.4,409.519 2109.97,411.455 2111.55,409.196 2113.12,411.455 2114.7,413.068 2116.27,414.037 2117.85,415.327 2119.42,417.264 2121,415.327 2122.57,416.941 2124.15,417.909 2125.72,419.523 2127.3,418.877 2128.87,421.136 2130.45,419.2 2132.03,419.2 2133.6,422.75 2135.18,418.555 2136.75,423.073 2138.33,423.073 2139.9,421.782 2141.48,423.395 2143.05,422.105 2144.63,425.332 2146.2,423.395 2147.78,426.945 2149.35,424.686 2150.93,429.527 2152.5,426.623 2154.08,426.3 2155.65,427.591 2157.23,426.945 2158.81,428.559 2160.38,428.236 2161.96,429.204 2163.53,427.591 2165.11,429.527 2166.68,428.236 2168.26,429.204 2169.83,428.882 2171.41,427.913 2172.98,431.786 2174.56,433.4 2176.13,433.4 2177.71,436.627 2179.28,433.4 2180.86,440.499 2182.43,439.854 2184.01,438.563 2185.59,443.404 2187.16,438.563 2188.74,441.79 2190.31,441.79 2191.89,443.727 2193.46,443.727 2195.04,440.822 2196.61,443.081 2198.19,444.695 2199.76,445.017 2201.34,446.954 2202.91,449.213 2204.49,449.213 2206.06,450.826 2207.64,452.44 2209.21,449.858 2210.79,448.245 2212.37,453.731 2213.94,450.504 2215.52,450.181 2217.09,453.731 2218.67,456.635 2220.24,459.862 2221.82,457.603 2223.39,463.412 2224.97,462.767 2226.54,465.671 2228.12,460.185 2229.69,465.671 2231.27,465.671 2232.84,465.994 2234.42,465.671 2235.99,470.189 2237.57,465.671 2239.14,471.48 2240.72,468.576 2242.3,466.64 2243.87,472.126 2245.45,471.803 2247.02,472.771 2248.6,474.385 2250.17,474.062 2251.75,476.967 2253.32,473.417 2254.9,470.189 2256.47,474.707 2258.05,475.676 2259.62,478.257 2261.2,476.967 2262.77,476.321 2264.35,478.257 2265.92,476.321 2267.5,472.448 2269.08,477.935 2270.65,477.935 2272.23,481.162 2273.8,482.453 2275.38,480.839 2276.95,482.775 2278.53,483.421 2280.1,485.68 2281.68,484.712 2283.25,484.712 2284.83,488.907 2286.4,487.939 2287.98,483.744 2289.55,490.198 2291.13,489.875 2292.7,488.584 2294.28,491.812 2295.86,491.166 2297.43,490.843 2299.01,493.425 2300.58,494.393 2302.16,498.266 2303.73,500.202 2305.31,500.525 2306.88,502.138 2308.46,502.784 2310.03,503.752 2311.61,505.688 2313.18,505.688 2314.76,507.625 2316.33,510.529 2317.91,507.947 2319.48,511.82 2321.06,511.175 2322.64,518.274 2324.21,512.788 2325.79,512.143 2327.36,511.497 2328.94,515.693 2330.51,514.402 2332.09,517.952 2333.66,516.984 2335.24,519.565 2336.81,520.211 2338.39,523.438 2339.96,523.761 2341.54,523.761 2343.11,526.342 2344.69,526.665 2346.26,531.829 2347.84,527.633 2349.41,531.506 2350.99,529.247 2352.57,529.892 2354.14,530.215 2355.72,531.506 2357.29,527.956 2358.87,529.247 2360.44,530.86 2362.02,530.215 2363.59,534.733 2365.17,533.119 2366.74,533.442 2368.32,529.247 2369.89,538.606 2371.47,534.41 2373.04,540.865 2374.62,539.251 2376.19,537.637 2377.77,541.187 2379.35,543.446 2380.92,543.124 2382.5,550.223 2384.07,549.255 2385.65,551.514 2387.22,548.933 2388.8,551.837 2390.37,555.064 2391.95,555.71 2393.52,558.291 2395.1,559.26 2396.67,562.164 2398.25,563.132 2399.82,562.164 2401.4,564.423 2402.97,564.423 2404.55,569.586 2406.13,568.618 2407.7,567.973 2409.28,567.327 2410.85,571.2 2412.43,571.523 2414,570.232 2415.58,574.105 2417.15,576.364 2418.73,575.073 2420.3,577.654 2421.88,577.977 2423.45,578.3 2425.03,580.236 2426.6,585.077 2428.18,577.977 2429.75,580.882 2431.33,583.463 2432.91,584.431 2434.48,586.045 2436.06,586.691 2437.63,587.336 2439.21,587.659 2440.78,589.272 2442.36,589.918 2443.93,589.272 2445.51,593.145 2447.08,590.563 2448.66,589.272 2450.23,595.727 2451.81,596.049 2453.38,596.372 2454.96,597.017 2456.53,599.922 2458.11,595.727 2459.68,601.536 2461.26,599.276 2462.84,603.149 2464.41,604.763 2465.99,601.858 2467.56,600.567 2469.14,605.085 2470.71,604.763 2472.29,604.117 2473.86,603.472 2475.44,607.99 2477.01,609.926 2478.59,606.376 2480.16,609.926 2481.74,608.313 2483.31,609.926 2484.89,611.217 2486.46,613.153 2488.04,609.926 2489.62,612.185 2491.19,610.249 2492.77,610.249 2494.34,609.281 2495.92,611.54 2497.49,609.603 2499.07,609.281 2500.64,612.508 2502.22,609.926 2503.79,614.767 2505.37,615.09 2506.94,613.799 2508.52,616.381 2510.09,619.285 2511.67,616.381 2513.24,620.576 2514.82,620.899 2516.4,616.381 2517.97,612.831 2519.55,617.026 2521.12,615.735 2522.7,619.93 2524.27,618.64 2525.85,618.64 2527.42,616.058 2529,619.608 2530.57,618.64 2532.15,618.317 2533.72,624.771 2535.3,621.867 2536.87,621.867 2538.45,622.512 2540.02,624.126 2541.6,626.385 2543.18,622.835 2544.75,624.448 2546.33,629.612 2547.9,630.903 2549.48,627.676 2551.05,631.548 2552.63,628.644 2554.2,630.58 2555.78,629.289 2557.35,633.807 2558.93,633.807 2560.5,635.421 2562.08,638.648 2563.65,638.971 2565.23,635.744 2566.8,636.389 2568.38,638.325 2569.96,637.68 2571.53,640.262 2573.11,639.616 2574.68,644.457 2576.26,641.875 2577.83,647.039 2579.41,642.843 2580.98,644.78 2582.56,644.78 2584.13,647.684 2585.71,646.071 2587.28,647.039 2588.86,647.684 2590.43,651.234 2592.01,652.848 2593.58,649.298 2595.16,654.461 2596.73,652.848 2598.31,653.816 2599.89,654.138 2601.46,656.075 2603.04,655.752 2604.61,655.752 2606.19,655.107 2607.76,656.398 2609.34,656.398 2610.91,654.138 2612.49,656.398 2614.06,653.816 2615.64,658.334 2617.21,656.72 2618.79,660.27 2620.36,658.011 2621.94,659.947 2623.51,659.947 2625.09,661.884 2626.67,662.852 2628.24,661.561 2629.82,661.884 2631.39,660.593 2632.97,663.497 2634.54,669.629 2636.12,671.243 2637.69,670.274 2639.27,662.852 2640.84,668.661 2642.42,668.338 2643.99,668.338 2645.57,665.111 2647.14,669.952 2648.72,670.274 2650.29,670.92 2651.87,674.147 2653.45,672.856 2655.02,673.502 2656.6,676.083 2658.17,678.02 2659.75,679.31 2661.32,680.601 2662.9,685.765 2664.47,684.151 2666.05,690.283 2667.62,692.542 2669.2,692.219 2670.77,695.446 2672.35,695.446 2673.92,696.414 2675.5,697.705 2677.07,704.16 2678.65,707.064 2680.23,707.71 2681.8,707.387 2683.38,705.451 2684.95,706.741 2686.53,709.969 2688.1,706.741 2689.68,710.937 2691.25,708.355 2692.83,708.355 2694.4,712.55 2695.98,713.519 2697.55,713.196 2699.13,718.682 2700.7,714.809 2702.28,715.132 2703.85,720.296 2705.43,718.682 2707,719.327 2708.58,716.746 2710.16,719.65 2711.73,723.523 2713.31,723.2 2714.88,719.005 2716.46,724.814 2718.03,724.814 2719.61,725.459 2721.18,722.555 2722.76,725.459 2724.33,722.555 2725.91,725.459 2727.48,726.105 2729.06,727.395 2730.63,731.268 2732.21,729.332 2733.78,729.332 2735.36,729.654 2736.94,734.495 2738.51,736.109 2740.09,730.623 2741.66,732.559 2743.24,738.368 2744.81,733.204 2746.39,739.336 2747.96,735.786 2749.54,739.981 2751.11,737.4 2752.69,739.013 2754.26,741.595 2755.84,739.336 2757.41,740.95 2758.99,746.113 2760.56,744.822 2762.14,746.436 2763.72,746.758 2765.29,749.017 2766.87,747.081 2768.44,751.599 2770.02,752.567 2771.59,749.017 2773.17,757.408 2774.74,757.408 2776.32,754.504 2777.89,753.858 2779.47,759.99 2781.04,757.085 2782.62,761.603 2784.19,763.862 2785.77,763.217 2787.34,761.926 2788.92,762.894 2790.5,764.185 2792.07,760.635 2793.65,765.799 2795.22,765.476 2796.8,765.153 2798.37,763.862 2799.95,769.026 2801.52,769.026 2803.1,770.317 2804.67,773.221 2806.25,769.349 2807.82,776.448 2809.4,778.707 2810.97,775.803 2812.55,776.771 2814.12,779.03 2815.7,780.644 2817.27,780.321 2818.85,779.998 2820.43,779.676 2822,779.998 2823.58,782.903 2825.15,787.098 2826.73,787.421 2828.3,790.003 2829.88,927.158 2831.45,931.03 2833.03,929.417 2834.6,930.707 2836.18,934.58 2837.75,933.289 2839.33,933.612 2840.9,934.58 2842.48,932.966 2844.05,936.839 2845.63,939.421 2847.21,935.226 2848.78,936.839 2850.36,938.13 2851.93,941.034 2853.51,940.712 2855.08,942.648 2856.66,943.939 2858.23,942.971 2859.81,946.198 2861.38,945.23 2862.96,951.361 2864.53,946.521 2866.11,943.939 2867.68,948.78 2869.26,949.425 2870.83,949.102 2872.41,950.716 2873.99,952.652 2875.56,952.33 2877.14,952.975 2878.71,954.589 2880.29,956.525 2881.86,957.493 2883.44,960.397 2885.01,957.816 2886.59,958.138 2888.16,960.72 2889.74,960.075 2891.31,958.784 2892.89,962.657 2894.46,960.397 2896.04,961.366 2897.61,966.529 2899.19,970.079 2900.77,973.952 2902.34,969.434 2903.92,972.338 2905.49,972.661 2907.07,974.597 2908.64,975.565 2910.22,975.888 2911.79,976.533 2913.37,975.565 2914.94,979.761 2916.52,981.374 2918.09,984.601 2919.67,987.183 2921.24,987.828 2922.82,986.86 2924.39,989.442 2925.97,993.315 2927.55,995.251 2929.12,995.251 2930.7,994.606 2932.27,997.833 2933.85,996.865 2935.42,997.833 2937,1001.06 2938.57,1001.06 2940.15,999.769 2941.72,1000.41 2943.3,998.155 2944.87,1000.74 2946.45,1001.38 2948.02,1001.06 2949.6,1004.29 2951.17,1005.26 2952.75,1006.87 2954.32,1007.19 2955.9,1006.22 2957.48,1008.81 2959.05,1008.81 2960.63,1011.39 2962.2,1014.94 2963.78,1017.84 2965.35,1015.58 2966.93,1017.84 2968.5,888.431 2970.08,1020.75 2971.65,1026.88 2973.23,894.563 2974.8,905.858 2976.38,995.251 2977.95,969.111 2979.53,1032.69 2981.1,908.117 2982.68,1030.43 2984.26,1033.33 2985.83,982.342 2987.41,1001.71 2988.98,1038.17 2990.56,1036.24 2992.13,971.693 2993.71,1035.59 2995.28,1036.56 2996.86,1033.65 2998.43,939.098 3000.01,983.31 3001.58,1037.2 3003.16,994.928 3004.73,1036.24 3006.31,1036.56 3007.88,1040.75 3009.46,1037.85 3011.04,1040.11 3012.61,1034.3 3014.19,1038.17 3015.76,1039.79 3017.34,1040.75 3018.91,1041.72 3020.49,1041.08 3022.06,1042.69 3023.64,1043.66 3025.21,1043.34 3026.79,1045.59 3028.36,1045.59 3029.94,1044.63 3031.51,1046.89 3033.09,1046.89 3034.66,1047.85 3036.24,1050.11 3037.82,1047.53 3039.39,1045.92 3040.97,1055.6 3042.54,1051.73 3044.12,1053.34 3045.69,1049.79 3047.27,1059.79 3048.84,1053.02 3050.42,1053.02 3051.99,1055.28 3053.57,1055.28 3055.14,1055.28 3056.72,1058.5 3058.29,1054.31 3059.87,1062.38 3061.44,1060.12 3063.02,1059.15 3064.59,1062.38 3066.17,1063.34 3067.75,1065.93 3069.32,1067.86 3070.9,1063.34 3072.47,1067.86 3074.05,1069.8 3075.62,1073.35 3077.2,1070.44 3078.77,1069.15 3080.35,1073.99 3081.92,1071.09 3083.5,1071.41 3085.07,1072.7 3086.65,1076.25 3088.22,1076.25 3089.8,1077.54 3091.37,1076.25 3092.95,1075.28 3094.53,1080.77 3096.1,1080.77 3097.68,1083.35 3099.25,1085.93 3100.83,1083.68 3102.4,1084.64 3103.98,1085.61 3105.55,1089.81 3107.13,1087.23 3108.7,1091.74 3110.28,1092.71 3111.85,1092.71 3113.43,1093.68 3115,1093.03 3116.58,1098.52 3118.15,1098.84 3119.73,1100.13 3121.31,1103.04 3122.88,1099.81 3124.46,1099.49 3126.03,1103.36 3127.61,1103.36 3129.18,1104.97 3130.76,1108.2 3132.33,1106.27 3133.91,1105.94 3135.48,1111.43 3137.06,1112.72 3138.63,1114.01 3140.21,1114.66 3141.78,1115.3 3143.36,1114.33 3144.93,1118.21 3146.51,1117.56 3148.09,1118.85 3149.66,1118.53 3151.24,1116.27 3152.81,1119.5 3154.39,1119.17 3155.96,1122.08 3157.54,1120.79 3159.11,1124.02 3160.69,1126.6 3162.26,1121.11 3163.84,1123.05 3165.41,1124.02 3166.99,1119.82 3168.56,1124.02 3170.14,1124.66 3171.71,1120.47 3173.29,1126.6 3174.86,1128.21 3176.44,1128.21 3178.02,1129.82 3179.59,1129.82 3181.17,1129.82 3182.74,1134.66 3184.32,1132.73 3185.89,1137.25 3187.47,1135.31 3189.04,1136.92 3190.62,1139.18 3192.19,1136.28 3193.77,1140.47 3195.34,1144.02 3196.92,1140.15 3198.49,1146.93 3200.07,1145.64 3201.64,1146.28 3203.22,1151.12 3204.8,1154.03 3206.37,1152.09 3207.95,1145.96 3209.52,1149.51 3211.1,1149.83 3212.67,1149.19 3214.25,1149.83 3215.82,1150.48 3217.4,1149.51 3218.97,1150.48 3220.55,1148.54 3222.12,1153.06 3223.7,1152.09 3225.27,1151.77 3226.85,1153.71 3228.42,1154.03 3230,1152.09 3231.58,1150.8 3233.15,1153.38 3234.73,1153.06 3236.3,1152.09 3237.88,1155.32 3239.45,1158.87 3241.03,1160.16 3242.6,1156.29 3244.18,1159.51 3245.75,1158.22 3247.33,1156.29 3248.9,1161.45 3250.48,1161.45 3252.05,1162.74 3253.63,1166.94 3255.2,1166.94 3256.78,1172.42 3258.36,1169.52 3259.93,1173.39 3261.51,1170.16 3263.08,1175.97 3264.66,1174.04 3266.23,1174.04 3267.81,1174.68 3269.38,1178.55 3270.96,1177.26 3272.53,1173.07 3274.11,1178.55 3275.68,1176.62 3277.26,1177.91 3278.83,1179.52 3280.41,1181.14 3281.98,1179.85 3283.56,1184.04 3285.14,1181.14 3286.71,1181.46 3288.29,1177.26 3289.86,1181.14 3291.44,1181.14 3293.01,1180.81 3294.59,1177.59 3296.16,1184.36 3297.74,1182.1 3299.31,1182.43 3300.89,1183.07 3302.46,1181.14 3304.04,1182.75 3305.61,1184.04 3307.19,1184.04 3308.76,1184.69 3310.34,1188.24 3311.91,1181.46 3313.49,1184.04 3315.07,1182.43 3316.64,1185.65 3318.22,1186.62 3319.79,1190.17 3321.37,1190.82 3322.94,1187.27 3324.52,1185.65 3326.09,1190.82 3327.67,1189.85 3329.24,1190.82 3330.82,1191.79 3332.39,1192.75 3333.97,1188.88 3335.54,1192.43 3337.12,1194.37 3338.69,1194.69 3340.27,1195.34 3341.85,1196.3 3343.42,1193.72 3345,1198.24 3346.57,1198.24 3348.15,1203.73 3349.72,1198.89 3351.3,1199.85 3352.87,1202.44 3354.45,1199.53 3356.02,1201.14 3357.6,1201.14 3359.17,1201.14 3360.75,1201.79 3362.32,1196.95 3363.9,1204.69 3365.47,1202.76 3367.05,1200.5 3368.63,1200.5 3370.2,1204.37 3371.78,1202.11 3373.35,1202.44 3374.93,1204.05 3376.5,1204.37 3378.08,1202.76 3379.65,1204.37 3381.23,1205.66 3382.8,1209.86 3384.38,1210.18 3385.95,1209.86 3387.53,1209.86 3389.1,1210.83 3390.68,1210.83 3392.25,1214.05 3393.83,1214.38 3395.41,1214.05 3396.98,1218.57 " />
</g>

<g fill="none" stroke="#000000" stroke-opacity="1" stroke-width="1" stroke-linecap="square" stroke-linejoin="bevel" transform="matrix(0.742268,0,0,0.742268,0,0)"
font-family="Sans Serif" font-size="9" font-weight="400" font-style="normal" 
>
</g>

<g fill="none" stroke="#000000" stroke-opacity="1" stroke-width="1" stroke-linecap="square" stroke-linejoin="bevel" transform="matrix(0.742268,0,0,0.742268,0,0)"
font-family="Sans Serif" font-size="9" font-weight="400" font-style="normal" 
>
</g>

<g fill="none" stroke="#000000" stroke-opacity="1" stroke-width="1" stroke-linecap="square" stroke-linejoin="bevel" transform="matrix(0.742268,0,0,0.742268,0,0)"
font-family="Sans Serif" font-size="9" font-weight="400" font-style="normal" 
>
</g>

<g fill="none" stroke="none" transform="matrix(0.742268,0,0,0.742268,0,0)"
font-family="Sans Serif" font-size="9" font-weight="400" font-style="normal" 
>
<rect x="3359" y="1728" width="46" height="25"/>
</g>

<g fill="none" stroke="#000000" stroke-opacity="1" stroke-width="1" stroke-linecap="square" stroke-linejoin="bevel" transform="matrix(0.742268,0,0,0.742268,0,0)"
font-family="Sans Serif" font-size="9" font-weight="400" font-style="normal" 
>
</g>

<g fill="none" stroke="#000000" stroke-opacity="1" stroke-width="1" stroke-linecap="square" stroke-linejoin="bevel" transform="matrix(0.742268,0,0,0.742268,0,0)"
font-family="Sans Serif" font-size="9" font-weight="400" font-style="normal" 
>
</g>

<g fill="none" stroke="#000000" stroke-opacity="1" stroke-width="1" stroke-linecap="square" stroke-linejoin="bevel" transform="matrix(0.742268,0,0,0.742268,2496.25,1288.58)"
font-family="Sans Serif" font-size="9" font-weight="400" font-style="normal" 
>
</g>

<g fill="#ff0056" fill-opacity="1" stroke="none" transform="matrix(0.742268,0,0,0.742268,0,0)"
font-family="Sans Serif" font-size="9" font-weight="400" font-style="normal" 
>
<path vector-effect="none" fill-rule="evenodd" d="M3363,1736 L3371,1736 L3371,1744 L3363,1744 L3363,1736"/>
</g>

<g fill="none" stroke="#000000" stroke-opacity="1" stroke-width="1" stroke-linecap="square" stroke-linejoin="bevel" transform="matrix(0.742268,0,0,0.742268,2496.25,1288.58)"
font-family="Sans Serif" font-size="9" font-weight="400" font-style="normal" 
>
</g>

<g fill="none" stroke="#000000" stroke-opacity="1" stroke-width="1" stroke-linecap="square" stroke-linejoin="bevel" transform="matrix(0.742268,0,0,0.742268,0,0)"
font-family="Sans Serif" font-size="9" font-weight="400" font-style="normal" 
>
</g>

<g fill="none" stroke="#000000" stroke-opacity="1" stroke-width="1" stroke-linecap="square" stroke-linejoin="bevel" transform="matrix(0.742268,0,0,0.742268,0,0)"
font-family="Sans Serif" font-size="12" font-weight="400" font-style="normal" 
>
</g>

<g fill="none" stroke="#000000" stroke-opacity="1" stroke-width="1" stroke-linecap="square" stroke-linejoin="bevel" transform="matrix(0.742268,0,0,0.742268,0,0)"
font-family="Sans Serif" font-size="12" font-weight="400" font-style="normal" 
>
<text fill="#000000" fill-opacity="1" stroke="none" xml:space="preserve" x="3375" y="1745" font-family="Sans Serif" font-size="12" font-weight="400" font-style="normal" 
 >Pot1</text>
</g>

<g fill="none" stroke="#000000" stroke-opacity="1" stroke-width="1" stroke-linecap="square" stroke-linejoin="bevel" transform="matrix(0.742268,0,0,0.742268,0,0)"
font-family="Sans Serif" font-size="9" font-weight="400" font-style="normal" 
>
</g>

<g fill="none" stroke="#000000" stroke-opacity="1" stroke-width="1" stroke-linecap="square" stroke-linejoin="bevel" transform="matrix(0.742268,0,0,0.742268,0,0)"
font-family="Sans Serif" font-size="9" font-weight="400" font-style="normal" 
>
</g>

<g fill="none" stroke="#000000" stroke-opacity="1" stroke-width="1" stroke-linecap="square" stroke-linejoin="bevel" transform="matrix(0.742268,0,0,0.742268,0,0)"
font-family="Sans Serif" font-size="9" font-weight="400" font-style="normal" 
>
</g>

<g fill="none" stroke="#000000" stroke-opacity="1" stroke-width="1" stroke-linecap="square" stroke-linejoin="bevel" transform="matrix(0.742268,0,0,0.742268,0,0)"
font-family="Sans Serif" font-size="9" font-weight="400" font-style="normal" 
>
</g>

<g fill="none" stroke="#000000" stroke-opacity="1" stroke-width="1" stroke-linecap="square" stroke-linejoin="bevel" transform="matrix(0.742268,0,0,0.742268,0,0)"
font-family="Sans Serif" font-size="9" font-weight="400" font-style="normal" 
>
</g>

<g fill="none" stroke="#000000" stroke-opacity="1" stroke-width="1" stroke-linecap="square" stroke-linejoin="bevel" transform="matrix(0.742268,0,0,0.742268,0,0)"
font-family="Sans Serif" font-size="9" font-weight="400" font-style="normal" 
>
</g>

<g fill="none" stroke="#000000" stroke-opacity="1" stroke-width="1" stroke-linecap="square" stroke-linejoin="bevel" transform="matrix(0.742268,0,0,0.742268,0,0)"
font-family="Sans Serif" font-size="9" font-weight="400" font-style="normal" 
>
</g>

<g fill="#9f9f9f" fill-opacity="1" stroke="none" transform="matrix(0.742268,0,0,0.742268,0,0)"
font-family="Sans Serif" font-size="9" font-weight="400" font-style="normal" 
>
<path vector-effect="none" fill-rule="evenodd" d="M57,1763.46 L57,0 L3415.56,0 L3414.56,1 L58,1 L58,1762.46"/>
</g>

<g fill="#ffffff" fill-opacity="1" stroke="none" transform="matrix(0.742268,0,0,0.742268,0,0)"
font-family="Sans Serif" font-size="9" font-weight="400" font-style="normal" 
>
<path vector-effect="none" fill-rule="evenodd" d="M57,1763.46 L3415.56,1763.46 L3415.56,0 L3414.56,1 L3414.56,1762.46 L58,1762.46"/>
</g>

<g fill="none" stroke="#000000" stroke-opacity="1" stroke-width="1" stroke-linecap="square" stroke-linejoin="bevel" transform="matrix(0.742268,0,0,0.742268,0,0)"
font-family="Sans Serif" font-size="9" font-weight="400" font-style="normal" 
>
</g>

<g fill="none" stroke="#000000" stroke-opacity="1" stroke-width="1" stroke-linecap="square" stroke-linejoin="bevel" transform="matrix(0.742268,0,0,0.742268,0,0)"
font-family="Sans Serif" font-size="9" font-weight="400" font-style="normal" 
>
</g>

<g fill="none" stroke="#000000" stroke-opacity="1" stroke-width="1" stroke-linecap="square" stroke-linejoin="bevel" transform="matrix(0,-0.742268,0.742268,0,0,1308.22)"
font-family="Noto Sans" font-size="10" font-weight="400" font-style="normal" 
>
</g>

<g fill="none" stroke="#000000" stroke-opacity="1" stroke-width="1" stroke-linecap="square" stroke-linejoin="bevel" transform="matrix(0,-0.742268,0.742268,0,0,1308.22)"
font-family="Noto Sans" font-size="12" font-weight="700" font-style="normal" 
>
</g>

<g fill="none" stroke="#000000" stroke-opacity="1" stroke-width="1" stroke-linecap="square" stroke-linejoin="bevel" transform="matrix(0,-0.742268,0.742268,0,0,1308.22)"
font-family="Noto Sans" font-size="12" font-weight="700" font-style="normal" 
>
</g>

<g fill="none" stroke="#000000" stroke-opacity="1" stroke-width="1" stroke-linecap="square" stroke-linejoin="bevel" transform="matrix(0,-0.742268,0.742268,0,0,1308.22)"
font-family="Noto Sans" font-size="10" font-weight="400" font-style="normal" 
>
</g>

<g fill="none" stroke="#000000" stroke-opacity="1" stroke-width="1" stroke-linecap="square" stroke-linejoin="bevel" transform="matrix(0.742268,0,0,0.742268,0,0)"
font-family="Sans Serif" font-size="9" font-weight="400" font-style="normal" 
>
</g>

<g fill="none" stroke="#000000" stroke-opacity="1" stroke-width="1" stroke-linecap="square" stroke-linejoin="bevel" transform="matrix(0.742268,0,0,0.742268,0,0)"
font-family="Noto Sans" font-size="10" font-weight="400" font-style="normal" 
>
</g>

<g fill="none" stroke="#000000" stroke-opacity="1" stroke-width="1" stroke-linecap="square" stroke-linejoin="bevel" transform="matrix(0.742268,0,0,0.742268,0,0)"
font-family="Noto Sans" font-size="10" font-weight="400" font-style="normal" 
>
</g>

<g fill="none" stroke="#000000" stroke-opacity="1" stroke-width="1" stroke-linecap="square" stroke-linejoin="bevel" transform="matrix(0.742268,0,0,0.742268,0,0)"
font-family="Noto Sans" font-size="10" font-weight="400" font-style="normal" 
>
</g>

<g fill="none" stroke="#000000" stroke-opacity="1" stroke-width="1" stroke-linecap="square" stroke-linejoin="bevel" transform="matrix(0.742268,0,0,0.742268,0.313144,1181.78)"
font-family="Noto Sans" font-size="10" font-weight="400" font-style="normal" 
>
</g>

<g fill="none" stroke="#000000" stroke-opacity="1" stroke-width="1" stroke-linecap="square" stroke-linejoin="bevel" transform="matrix(0.742268,0,0,0.742268,0.313144,1181.78)"
font-family="Noto Sans" font-size="13" font-weight="400" font-style="normal" 
>
</g>

<g fill="none" stroke="#000000" stroke-opacity="1" stroke-width="1" stroke-linecap="square" stroke-linejoin="bevel" transform="matrix(0.742268,0,0,0.742268,0.313144,1181.78)"
font-family="Noto Sans" font-size="13" font-weight="400" font-style="normal" 
>
<text fill="#000000" fill-opacity="1" stroke="none" xml:space="preserve" x="0" y="10" font-family="Noto Sans" font-size="13" font-weight="400" font-style="normal" 
 >14,000</text>
</g>

<g fill="none" stroke="#000000" stroke-opacity="1" stroke-width="1" stroke-linecap="square" stroke-linejoin="bevel" transform="matrix(0.742268,0,0,0.742268,0.313144,1181.78)"
font-family="Noto Sans" font-size="10" font-weight="400" font-style="normal" 
>
</g>

<g fill="none" stroke="#000000" stroke-opacity="1" stroke-width="1" stroke-linecap="square" stroke-linejoin="bevel" transform="matrix(0.742268,0,0,0.742268,0.313144,1181.78)"
font-family="Noto Sans" font-size="10" font-weight="400" font-style="normal" 
>
</g>

<g fill="none" stroke="#000000" stroke-opacity="1" stroke-width="1" stroke-linecap="square" stroke-linejoin="bevel" transform="matrix(0.742268,0,0,0.742268,0,0)"
font-family="Noto Sans" font-size="10" font-weight="400" font-style="normal" 
>
</g>

<g fill="none" stroke="#000000" stroke-opacity="1" stroke-width="1" stroke-linecap="square" stroke-linejoin="bevel" transform="matrix(0.742268,0,0,0.742268,0.313144,942.236)"
font-family="Noto Sans" font-size="10" font-weight="400" font-style="normal" 
>
</g>

<g fill="none" stroke="#000000" stroke-opacity="1" stroke-width="1" stroke-linecap="square" stroke-linejoin="bevel" transform="matrix(0.742268,0,0,0.742268,0.313144,942.236)"
font-family="Noto Sans" font-size="13" font-weight="400" font-style="normal" 
>
</g>

<g fill="none" stroke="#000000" stroke-opacity="1" stroke-width="1" stroke-linecap="square" stroke-linejoin="bevel" transform="matrix(0.742268,0,0,0.742268,0.313144,942.236)"
font-family="Noto Sans" font-size="13" font-weight="400" font-style="normal" 
>
<text fill="#000000" fill-opacity="1" stroke="none" xml:space="preserve" x="0" y="10" font-family="Noto Sans" font-size="13" font-weight="400" font-style="normal" 
 >15,000</text>
</g>

<g fill="none" stroke="#000000" stroke-opacity="1" stroke-width="1" stroke-linecap="square" stroke-linejoin="bevel" transform="matrix(0.742268,0,0,0.742268,0.313144,942.236)"
font-family="Noto Sans" font-size="10" font-weight="400" font-style="normal" 
>
</g>

<g fill="none" stroke="#000000" stroke-opacity="1" stroke-width="1" stroke-linecap="square" stroke-linejoin="bevel" transform="matrix(0.742268,0,0,0.742268,0.313144,942.236)"
font-family="Noto Sans" font-size="10" font-weight="400" font-style="normal" 
>
</g>

<g fill="none" stroke="#000000" stroke-opacity="1" stroke-width="1" stroke-linecap="square" stroke-linejoin="bevel" transform="matrix(0.742268,0,0,0.742268,0,0)"
font-family="Noto Sans" font-size="10" font-weight="400" font-style="normal" 
>
</g>

<g fill="none" stroke="#000000" stroke-opacity="1" stroke-width="1" stroke-linecap="square" stroke-linejoin="bevel" transform="matrix(0.742268,0,0,0.742268,0.313144,702.693)"
font-family="Noto Sans" font-size="10" font-weight="400" font-style="normal" 
>
</g>

<g fill="none" stroke="#000000" stroke-opacity="1" stroke-width="1" stroke-linecap="square" stroke-linejoin="bevel" transform="matrix(0.742268,0,0,0.742268,0.313144,702.693)"
font-family="Noto Sans" font-size="13" font-weight="400" font-style="normal" 
>
</g>

<g fill="none" stroke="#000000" stroke-opacity="1" stroke-width="1" stroke-linecap="square" stroke-linejoin="bevel" transform="matrix(0.742268,0,0,0.742268,0.313144,702.693)"
font-family="Noto Sans" font-size="13" font-weight="400" font-style="normal" 
>
<text fill="#000000" fill-opacity="1" stroke="none" xml:space="preserve" x="0" y="10" font-family="Noto Sans" font-size="13" font-weight="400" font-style="normal" 
 >16,000</text>
</g>

<g fill="none" stroke="#000000" stroke-opacity="1" stroke-width="1" stroke-linecap="square" stroke-linejoin="bevel" transform="matrix(0.742268,0,0,0.742268,0.313144,702.693)"
font-family="Noto Sans" font-size="10" font-weight="400" font-style="normal" 
>
</g>

<g fill="none" stroke="#000000" stroke-opacity="1" stroke-width="1" stroke-linecap="square" stroke-linejoin="bevel" transform="matrix(0.742268,0,0,0.742268,0.313144,702.693)"
font-family="Noto Sans" font-size="10" font-weight="400" font-style="normal" 
>
</g>

<g fill="none" stroke="#000000" stroke-opacity="1" stroke-width="1" stroke-linecap="square" stroke-linejoin="bevel" transform="matrix(0.742268,0,0,0.742268,0,0)"
font-family="Noto Sans" font-size="10" font-weight="400" font-style="normal" 
>
</g>

<g fill="none" stroke="#000000" stroke-opacity="1" stroke-width="1" stroke-linecap="square" stroke-linejoin="bevel" transform="matrix(0.742268,0,0,0.742268,0.313144,463.15)"
font-family="Noto Sans" font-size="10" font-weight="400" font-style="normal" 
>
</g>

<g fill="none" stroke="#000000" stroke-opacity="1" stroke-width="1" stroke-linecap="square" stroke-linejoin="bevel" transform="matrix(0.742268,0,0,0.742268,0.313144,463.15)"
font-family="Noto Sans" font-size="13" font-weight="400" font-style="normal" 
>
</g>

<g fill="none" stroke="#000000" stroke-opacity="1" stroke-width="1" stroke-linecap="square" stroke-linejoin="bevel" transform="matrix(0.742268,0,0,0.742268,0.313144,463.15)"
font-family="Noto Sans" font-size="13" font-weight="400" font-style="normal" 
>
<text fill="#000000" fill-opacity="1" stroke="none" xml:space="preserve" x="0" y="10" font-family="Noto Sans" font-size="13" font-weight="400" font-style="normal" 
 >17,000</text>
</g>

<g fill="none" stroke="#000000" stroke-opacity="1" stroke-width="1" stroke-linecap="square" stroke-linejoin="bevel" transform="matrix(0.742268,0,0,0.742268,0.313144,463.15)"
font-family="Noto Sans" font-size="10" font-weight="400" font-style="normal" 
>
</g>

<g fill="none" stroke="#000000" stroke-opacity="1" stroke-width="1" stroke-linecap="square" stroke-linejoin="bevel" transform="matrix(0.742268,0,0,0.742268,0.313144,463.15)"
font-family="Noto Sans" font-size="10" font-weight="400" font-style="normal" 
>
</g>

<g fill="none" stroke="#000000" stroke-opacity="1" stroke-width="1" stroke-linecap="square" stroke-linejoin="bevel" transform="matrix(0.742268,0,0,0.742268,0,0)"
font-family="Noto Sans" font-size="10" font-weight="400" font-style="normal" 
>
</g>

<g fill="none" stroke="#000000" stroke-opacity="1" stroke-width="1" stroke-linecap="square" stroke-linejoin="bevel" transform="matrix(0.742268,0,0,0.742268,0.313144,223.607)"
font-family="Noto Sans" font-size="10" font-weight="400" font-style="normal" 
>
</g>

<g fill="none" stroke="#000000" stroke-opacity="1" stroke-width="1" stroke-linecap="square" stroke-linejoin="bevel" transform="matrix(0.742268,0,0,0.742268,0.313144,223.607)"
font-family="Noto Sans" font-size="13" font-weight="400" font-style="normal" 
>
</g>

<g fill="none" stroke="#000000" stroke-opacity="1" stroke-width="1" stroke-linecap="square" stroke-linejoin="bevel" transform="matrix(0.742268,0,0,0.742268,0.313144,223.607)"
font-family="Noto Sans" font-size="13" font-weight="400" font-style="normal" 
>
<text fill="#000000" fill-opacity="1" stroke="none" xml:space="preserve" x="0" y="10" font-family="Noto Sans" font-size="13" font-weight="400" font-style="normal" 
 >18,000</text>
</g>

<g fill="none" stroke="#000000" stroke-opacity="1" stroke-width="1" stroke-linecap="square" stroke-linejoin="bevel" transform="matrix(0.742268,0,0,0.742268,0.313144,223.607)"
font-family="Noto Sans" font-size="10" font-weight="400" font-style="normal" 
>
</g>

<g fill="none" stroke="#000000" stroke-opacity="1" stroke-width="1" stroke-linecap="square" stroke-linejoin="bevel" transform="matrix(0.742268,0,0,0.742268,0.313144,223.607)"
font-family="Noto Sans" font-size="10" font-weight="400" font-style="normal" 
>
</g>

<g fill="none" stroke="#000000" stroke-opacity="1" stroke-width="1" stroke-linecap="square" stroke-linejoin="bevel" transform="matrix(0.742268,0,0,0.742268,0,0)"
font-family="Noto Sans" font-size="10" font-weight="400" font-style="normal" 
>
</g>

<g fill="none" stroke="#000000" stroke-opacity="1" stroke-width="1" stroke-linecap="square" stroke-linejoin="bevel" transform="matrix(0.742268,0,0,0.742268,0,0)"
font-family="Noto Sans" font-size="10" font-weight="400" font-style="normal" 
>
</g>

<g fill="none" stroke="#000000" stroke-opacity="1" stroke-width="1" stroke-linecap="butt" stroke-linejoin="bevel" transform="matrix(0.742268,0,0,0.742268,0,0)"
font-family="Noto Sans" font-size="10" font-weight="400" font-style="normal" 
>
<polyline fill="none" vector-effect="non-scaling-stroke" points="54,1726.21 50,1726.21 " />
<polyline fill="none" vector-effect="non-scaling-stroke" points="54,1661.66 50,1661.66 " />
<polyline fill="none" vector-effect="non-scaling-stroke" points="54,1532.58 50,1532.58 " />
<polyline fill="none" vector-effect="non-scaling-stroke" points="54,1468.03 50,1468.03 " />
<polyline fill="none" vector-effect="non-scaling-stroke" points="54,1403.49 50,1403.49 " />
<polyline fill="none" vector-effect="non-scaling-stroke" points="54,1338.95 50,1338.95 " />
<polyline fill="none" vector-effect="non-scaling-stroke" points="54,1209.86 50,1209.86 " />
<polyline fill="none" vector-effect="non-scaling-stroke" points="54,1145.31 50,1145.31 " />
<polyline fill="none" vector-effect="non-scaling-stroke" points="54,1080.77 50,1080.77 " />
<polyline fill="none" vector-effect="non-scaling-stroke" points="54,1016.23 50,1016.23 " />
<polyline fill="none" vector-effect="non-scaling-stroke" points="54,887.141 50,887.141 " />
<polyline fill="none" vector-effect="non-scaling-stroke" points="54,822.597 50,822.597 " />
<polyline fill="none" vector-effect="non-scaling-stroke" points="54,758.054 50,758.054 " />
<polyline fill="none" vector-effect="non-scaling-stroke" points="54,693.51 50,693.51 " />
<polyline fill="none" vector-effect="non-scaling-stroke" points="54,564.423 50,564.423 " />
<polyline fill="none" vector-effect="non-scaling-stroke" points="54,499.879 50,499.879 " />
<polyline fill="none" vector-effect="non-scaling-stroke" points="54,435.336 50,435.336 " />
<polyline fill="none" vector-effect="non-scaling-stroke" points="54,370.792 50,370.792 " />
<polyline fill="none" vector-effect="non-scaling-stroke" points="54,241.705 50,241.705 " />
<polyline fill="none" vector-effect="non-scaling-stroke" points="54,177.162 50,177.162 " />
<polyline fill="none" vector-effect="non-scaling-stroke" points="54,112.618 50,112.618 " />
<polyline fill="none" vector-effect="non-scaling-stroke" points="54,48.0748 50,48.0748 " />
<polyline fill="none" vector-effect="non-scaling-stroke" points="54,1597.12 46,1597.12 " />
<polyline fill="none" vector-effect="non-scaling-stroke" points="54,1274.4 46,1274.4 " />
<polyline fill="none" vector-effect="non-scaling-stroke" points="54,951.684 46,951.684 " />
<polyline fill="none" vector-effect="non-scaling-stroke" points="54,628.967 46,628.967 " />
<polyline fill="none" vector-effect="non-scaling-stroke" points="54,306.249 46,306.249 " />
</g>

<g fill="none" stroke="#000000" stroke-opacity="1" stroke-width="1" stroke-linecap="square" stroke-linejoin="bevel" transform="matrix(0.742268,0,0,0.742268,0,0)"
font-family="Noto Sans" font-size="10" font-weight="400" font-style="normal" 
>
</g>

<g fill="none" stroke="#000000" stroke-opacity="1" stroke-width="1" stroke-linecap="butt" stroke-linejoin="bevel" transform="matrix(0.742268,0,0,0.742268,0,0)"
font-family="Noto Sans" font-size="10" font-weight="400" font-style="normal" 
>
<polyline fill="none" vector-effect="non-scaling-stroke" points="54,15 54,1757.46 " />
</g>

<g fill="none" stroke="#000000" stroke-opacity="1" stroke-width="1" stroke-linecap="square" stroke-linejoin="bevel" transform="matrix(0.742268,0,0,0.742268,0,0)"
font-family="Noto Sans" font-size="10" font-weight="400" font-style="normal" 
>
</g>

<g fill="none" stroke="#000000" stroke-opacity="1" stroke-width="1" stroke-linecap="square" stroke-linejoin="bevel" transform="matrix(0.742268,0,0,0.742268,0,0)"
font-family="Noto Sans" font-size="10" font-weight="400" font-style="normal" 
>
</g>

<g fill="none" stroke="#000000" stroke-opacity="1" stroke-width="1" stroke-linecap="square" stroke-linejoin="bevel" transform="matrix(0.742268,0,0,0.742268,0,0)"
font-family="Sans Serif" font-size="9" font-weight="400" font-style="normal" 
>
</g>

<g fill="none" stroke="#000000" stroke-opacity="1" stroke-width="1" stroke-linecap="square" stroke-linejoin="bevel" transform="matrix(0.742268,0,0,0.742268,43.7938,1329.74)"
font-family="Noto Sans" font-size="10" font-weight="400" font-style="normal" 
>
</g>

<g fill="none" stroke="#000000" stroke-opacity="1" stroke-width="1" stroke-linecap="square" stroke-linejoin="bevel" transform="matrix(0.742268,0,0,0.742268,43.7938,1329.74)"
font-family="Noto Sans" font-size="12" font-weight="700" font-style="normal" 
>
</g>

<g fill="none" stroke="#000000" stroke-opacity="1" stroke-width="1" stroke-linecap="square" stroke-linejoin="bevel" transform="matrix(0.742268,0,0,0.742268,43.7938,1329.74)"
font-family="Noto Sans" font-size="12" font-weight="700" font-style="normal" 
>
</g>

<g fill="none" stroke="#000000" stroke-opacity="1" stroke-width="1" stroke-linecap="square" stroke-linejoin="bevel" transform="matrix(0.742268,0,0,0.742268,43.7938,1329.74)"
font-family="Noto Sans" font-size="10" font-weight="400" font-style="normal" 
>
</g>

<g fill="none" stroke="#000000" stroke-opacity="1" stroke-width="1" stroke-linecap="square" stroke-linejoin="bevel" transform="matrix(0.742268,0,0,0.742268,0,0)"
font-family="Sans Serif" font-size="9" font-weight="400" font-style="normal" 
>
</g>

<g fill="none" stroke="#000000" stroke-opacity="1" stroke-width="1" stroke-linecap="square" stroke-linejoin="bevel" transform="matrix(0.742268,0,0,0.742268,0,0)"
font-family="Noto Sans" font-size="10" font-weight="400" font-style="normal" 
>
</g>

<g fill="none" stroke="#000000" stroke-opacity="1" stroke-width="1" stroke-linecap="square" stroke-linejoin="bevel" transform="matrix(0.742268,0,0,0.742268,0,0)"
font-family="Noto Sans" font-size="10" font-weight="400" font-style="normal" 
>
</g>

<g fill="none" stroke="#000000" stroke-opacity="1" stroke-width="1" stroke-linecap="square" stroke-linejoin="bevel" transform="matrix(0.742268,0,0,0.742268,0,0)"
font-family="Noto Sans" font-size="10" font-weight="400" font-style="normal" 
>
</g>

<g fill="none" stroke="#000000" stroke-opacity="1" stroke-width="1" stroke-linecap="square" stroke-linejoin="bevel" transform="matrix(0.742268,0,0,0.742268,563.475,1320.84)"
font-family="Noto Sans" font-size="10" font-weight="400" font-style="normal" 
>
</g>

<g fill="none" stroke="#000000" stroke-opacity="1" stroke-width="1" stroke-linecap="square" stroke-linejoin="bevel" transform="matrix(0.742268,0,0,0.742268,563.475,1320.84)"
font-family="Noto Sans" font-size="13" font-weight="400" font-style="normal" 
>
</g>

<g fill="none" stroke="#000000" stroke-opacity="1" stroke-width="1" stroke-linecap="square" stroke-linejoin="bevel" transform="matrix(0.742268,0,0,0.742268,563.475,1320.84)"
font-family="Noto Sans" font-size="13" font-weight="400" font-style="normal" 
>
</g>

<g fill="none" stroke="#000000" stroke-opacity="1" stroke-width="1" stroke-linecap="square" stroke-linejoin="bevel" transform="matrix(0.742268,0,0,0.742268,563.475,1320.84)"
font-family="Noto Sans" font-size="13" font-weight="400" font-style="normal" 
>
<text fill="#000000" fill-opacity="1" stroke="none" xml:space="preserve" x="0" y="10" font-family="Noto Sans" font-size="13" font-weight="400" font-style="normal" 
 >6,500</text>
</g>

<g fill="none" stroke="#000000" stroke-opacity="1" stroke-width="1" stroke-linecap="square" stroke-linejoin="bevel" transform="matrix(0.742268,0,0,0.742268,563.475,1320.84)"
font-family="Noto Sans" font-size="13" font-weight="400" font-style="normal" 
>
</g>

<g fill="none" stroke="#000000" stroke-opacity="1" stroke-width="1" stroke-linecap="square" stroke-linejoin="bevel" transform="matrix(0.742268,0,0,0.742268,563.475,1320.84)"
font-family="Noto Sans" font-size="10" font-weight="400" font-style="normal" 
>
</g>

<g fill="none" stroke="#000000" stroke-opacity="1" stroke-width="1" stroke-linecap="square" stroke-linejoin="bevel" transform="matrix(0.742268,0,0,0.742268,563.475,1320.84)"
font-family="Noto Sans" font-size="10" font-weight="400" font-style="normal" 
>
</g>

<g fill="none" stroke="#000000" stroke-opacity="1" stroke-width="1" stroke-linecap="square" stroke-linejoin="bevel" transform="matrix(0.742268,0,0,0.742268,0,0)"
font-family="Noto Sans" font-size="10" font-weight="400" font-style="normal" 
>
</g>

<g fill="none" stroke="#000000" stroke-opacity="1" stroke-width="1" stroke-linecap="square" stroke-linejoin="bevel" transform="matrix(0.742268,0,0,0.742268,1148.12,1320.84)"
font-family="Noto Sans" font-size="10" font-weight="400" font-style="normal" 
>
</g>

<g fill="none" stroke="#000000" stroke-opacity="1" stroke-width="1" stroke-linecap="square" stroke-linejoin="bevel" transform="matrix(0.742268,0,0,0.742268,1148.12,1320.84)"
font-family="Noto Sans" font-size="13" font-weight="400" font-style="normal" 
>
</g>

<g fill="none" stroke="#000000" stroke-opacity="1" stroke-width="1" stroke-linecap="square" stroke-linejoin="bevel" transform="matrix(0.742268,0,0,0.742268,1148.12,1320.84)"
font-family="Noto Sans" font-size="13" font-weight="400" font-style="normal" 
>
</g>

<g fill="none" stroke="#000000" stroke-opacity="1" stroke-width="1" stroke-linecap="square" stroke-linejoin="bevel" transform="matrix(0.742268,0,0,0.742268,1148.12,1320.84)"
font-family="Noto Sans" font-size="13" font-weight="400" font-style="normal" 
>
<text fill="#000000" fill-opacity="1" stroke="none" xml:space="preserve" x="0" y="10" font-family="Noto Sans" font-size="13" font-weight="400" font-style="normal" 
 >7,000</text>
</g>

<g fill="none" stroke="#000000" stroke-opacity="1" stroke-width="1" stroke-linecap="square" stroke-linejoin="bevel" transform="matrix(0.742268,0,0,0.742268,1148.12,1320.84)"
font-family="Noto Sans" font-size="13" font-weight="400" font-style="normal" 
>
</g>

<g fill="none" stroke="#000000" stroke-opacity="1" stroke-width="1" stroke-linecap="square" stroke-linejoin="bevel" transform="matrix(0.742268,0,0,0.742268,1148.12,1320.84)"
font-family="Noto Sans" font-size="10" font-weight="400" font-style="normal" 
>
</g>

<g fill="none" stroke="#000000" stroke-opacity="1" stroke-width="1" stroke-linecap="square" stroke-linejoin="bevel" transform="matrix(0.742268,0,0,0.742268,1148.12,1320.84)"
font-family="Noto Sans" font-size="10" font-weight="400" font-style="normal" 
>
</g>

<g fill="none" stroke="#000000" stroke-opacity="1" stroke-width="1" stroke-linecap="square" stroke-linejoin="bevel" transform="matrix(0.742268,0,0,0.742268,0,0)"
font-family="Noto Sans" font-size="10" font-weight="400" font-style="normal" 
>
</g>

<g fill="none" stroke="#000000" stroke-opacity="1" stroke-width="1" stroke-linecap="square" stroke-linejoin="bevel" transform="matrix(0.742268,0,0,0.742268,1732.76,1320.84)"
font-family="Noto Sans" font-size="10" font-weight="400" font-style="normal" 
>
</g>

<g fill="none" stroke="#000000" stroke-opacity="1" stroke-width="1" stroke-linecap="square" stroke-linejoin="bevel" transform="matrix(0.742268,0,0,0.742268,1732.76,1320.84)"
font-family="Noto Sans" font-size="13" font-weight="400" font-style="normal" 
>
</g>

<g fill="none" stroke="#000000" stroke-opacity="1" stroke-width="1" stroke-linecap="square" stroke-linejoin="bevel" transform="matrix(0.742268,0,0,0.742268,1732.76,1320.84)"
font-family="Noto Sans" font-size="13" font-weight="400" font-style="normal" 
>
</g>

<g fill="none" stroke="#000000" stroke-opacity="1" stroke-width="1" stroke-linecap="square" stroke-linejoin="bevel" transform="matrix(0.742268,0,0,0.742268,1732.76,1320.84)"
font-family="Noto Sans" font-size="13" font-weight="400" font-style="normal" 
>
<text fill="#000000" fill-opacity="1" stroke="none" xml:space="preserve" x="0" y="10" font-family="Noto Sans" font-size="13" font-weight="400" font-style="normal" 
 >7,500</text>
</g>

<g fill="none" stroke="#000000" stroke-opacity="1" stroke-width="1" stroke-linecap="square" stroke-linejoin="bevel" transform="matrix(0.742268,0,0,0.742268,1732.76,1320.84)"
font-family="Noto Sans" font-size="13" font-weight="400" font-style="normal" 
>
</g>

<g fill="none" stroke="#000000" stroke-opacity="1" stroke-width="1" stroke-linecap="square" stroke-linejoin="bevel" transform="matrix(0.742268,0,0,0.742268,1732.76,1320.84)"
font-family="Noto Sans" font-size="10" font-weight="400" font-style="normal" 
>
</g>

<g fill="none" stroke="#000000" stroke-opacity="1" stroke-width="1" stroke-linecap="square" stroke-linejoin="bevel" transform="matrix(0.742268,0,0,0.742268,1732.76,1320.84)"
font-family="Noto Sans" font-size="10" font-weight="400" font-style="normal" 
>
</g>

<g fill="none" stroke="#000000" stroke-opacity="1" stroke-width="1" stroke-linecap="square" stroke-linejoin="bevel" transform="matrix(0.742268,0,0,0.742268,0,0)"
font-family="Noto Sans" font-size="10" font-weight="400" font-style="normal" 
>
</g>

<g fill="none" stroke="#000000" stroke-opacity="1" stroke-width="1" stroke-linecap="square" stroke-linejoin="bevel" transform="matrix(0.742268,0,0,0.742268,2317.4,1320.84)"
font-family="Noto Sans" font-size="10" font-weight="400" font-style="normal" 
>
</g>

<g fill="none" stroke="#000000" stroke-opacity="1" stroke-width="1" stroke-linecap="square" stroke-linejoin="bevel" transform="matrix(0.742268,0,0,0.742268,2317.4,1320.84)"
font-family="Noto Sans" font-size="13" font-weight="400" font-style="normal" 
>
</g>

<g fill="none" stroke="#000000" stroke-opacity="1" stroke-width="1" stroke-linecap="square" stroke-linejoin="bevel" transform="matrix(0.742268,0,0,0.742268,2317.4,1320.84)"
font-family="Noto Sans" font-size="13" font-weight="400" font-style="normal" 
>
</g>

<g fill="none" stroke="#000000" stroke-opacity="1" stroke-width="1" stroke-linecap="square" stroke-linejoin="bevel" transform="matrix(0.742268,0,0,0.742268,2317.4,1320.84)"
font-family="Noto Sans" font-size="13" font-weight="400" font-style="normal" 
>
<text fill="#000000" fill-opacity="1" stroke="none" xml:space="preserve" x="0" y="10" font-family="Noto Sans" font-size="13" font-weight="400" font-style="normal" 
 >8,000</text>
</g>

<g fill="none" stroke="#000000" stroke-opacity="1" stroke-width="1" stroke-linecap="square" stroke-linejoin="bevel" transform="matrix(0.742268,0,0,0.742268,2317.4,1320.84)"
font-family="Noto Sans" font-size="13" font-weight="400" font-style="normal" 
>
</g>

<g fill="none" stroke="#000000" stroke-opacity="1" stroke-width="1" stroke-linecap="square" stroke-linejoin="bevel" transform="matrix(0.742268,0,0,0.742268,2317.4,1320.84)"
font-family="Noto Sans" font-size="10" font-weight="400" font-style="normal" 
>
</g>

<g fill="none" stroke="#000000" stroke-opacity="1" stroke-width="1" stroke-linecap="square" stroke-linejoin="bevel" transform="matrix(0.742268,0,0,0.742268,2317.4,1320.84)"
font-family="Noto Sans" font-size="10" font-weight="400" font-style="normal" 
>
</g>

<g fill="none" stroke="#000000" stroke-opacity="1" stroke-width="1" stroke-linecap="square" stroke-linejoin="bevel" transform="matrix(0.742268,0,0,0.742268,0,0)"
font-family="Noto Sans" font-size="10" font-weight="400" font-style="normal" 
>
</g>

<g fill="none" stroke="#000000" stroke-opacity="1" stroke-width="1" stroke-linecap="square" stroke-linejoin="bevel" transform="matrix(0.742268,0,0,0.742268,0,0)"
font-family="Noto Sans" font-size="10" font-weight="400" font-style="normal" 
>
</g>

<g fill="none" stroke="#000000" stroke-opacity="1" stroke-width="1" stroke-linecap="butt" stroke-linejoin="bevel" transform="matrix(0.742268,0,0,0.742268,0,0)"
font-family="Noto Sans" font-size="10" font-weight="400" font-style="normal" 
>
<polyline fill="none" vector-effect="non-scaling-stroke" points="145.589,1766.46 145.589,1770.46 " />
<polyline fill="none" vector-effect="non-scaling-stroke" points="303.118,1766.46 303.118,1770.46 " />
<polyline fill="none" vector-effect="non-scaling-stroke" points="460.647,1766.46 460.647,1770.46 " />
<polyline fill="none" vector-effect="non-scaling-stroke" points="618.175,1766.46 618.175,1770.46 " />
<polyline fill="none" vector-effect="non-scaling-stroke" points="933.233,1766.46 933.233,1770.46 " />
<polyline fill="none" vector-effect="non-scaling-stroke" points="1090.76,1766.46 1090.76,1770.46 " />
<polyline fill="none" vector-effect="non-scaling-stroke" points="1248.29,1766.46 1248.29,1770.46 " />
<polyline fill="none" vector-effect="non-scaling-stroke" points="1405.82,1766.46 1405.82,1770.46 " />
<polyline fill="none" vector-effect="non-scaling-stroke" points="1720.88,1766.46 1720.88,1770.46 " />
<polyline fill="none" vector-effect="non-scaling-stroke" points="1878.4,1766.46 1878.4,1770.46 " />
<polyline fill="none" vector-effect="non-scaling-stroke" points="2035.93,1766.46 2035.93,1770.46 " />
<polyline fill="none" vector-effect="non-scaling-stroke" points="2193.46,1766.46 2193.46,1770.46 " />
<polyline fill="none" vector-effect="non-scaling-stroke" points="2508.52,1766.46 2508.52,1770.46 " />
<polyline fill="none" vector-effect="non-scaling-stroke" points="2666.05,1766.46 2666.05,1770.46 " />
<polyline fill="none" vector-effect="non-scaling-stroke" points="2823.58,1766.46 2823.58,1770.46 " />
<polyline fill="none" vector-effect="non-scaling-stroke" points="2981.1,1766.46 2981.1,1770.46 " />
<polyline fill="none" vector-effect="non-scaling-stroke" points="3296.16,1766.46 3296.16,1770.46 " />
<polyline fill="none" vector-effect="non-scaling-stroke" points="775.704,1766.46 775.704,1774.46 " />
<polyline fill="none" vector-effect="non-scaling-stroke" points="1563.35,1766.46 1563.35,1774.46 " />
<polyline fill="none" vector-effect="non-scaling-stroke" points="2350.99,1766.46 2350.99,1774.46 " />
<polyline fill="none" vector-effect="non-scaling-stroke" points="3138.63,1766.46 3138.63,1774.46 " />
</g>

<g fill="none" stroke="#000000" stroke-opacity="1" stroke-width="1" stroke-linecap="square" stroke-linejoin="bevel" transform="matrix(0.742268,0,0,0.742268,0,0)"
font-family="Noto Sans" font-size="10" font-weight="400" font-style="normal" 
>
</g>

<g fill="none" stroke="#000000" stroke-opacity="1" stroke-width="1" stroke-linecap="butt" stroke-linejoin="bevel" transform="matrix(0.742268,0,0,0.742268,0,0)"
font-family="Noto Sans" font-size="10" font-weight="400" font-style="normal" 
>
<polyline fill="none" vector-effect="non-scaling-stroke" points="63,1766.46 3395.56,1766.46 " />
</g>

<g fill="none" stroke="#000000" stroke-opacity="1" stroke-width="1" stroke-linecap="square" stroke-linejoin="bevel" transform="matrix(0.742268,0,0,0.742268,0,0)"
font-family="Noto Sans" font-size="10" font-weight="400" font-style="normal" 
>
</g>

<g fill="none" stroke="#000000" stroke-opacity="1" stroke-width="1" stroke-linecap="square" stroke-linejoin="bevel" transform="matrix(0.742268,0,0,0.742268,0,0)"
font-family="Noto Sans" font-size="10" font-weight="400" font-style="normal" 
>
</g>

<g fill="none" stroke="#000000" stroke-opacity="1" stroke-width="1" stroke-linecap="square" stroke-linejoin="bevel" transform="matrix(0.742268,0,0,0.742268,0,0)"
font-family="Sans Serif" font-size="9" font-weight="400" font-style="normal" 
>
</g>

<g fill="none" stroke="#000000" stroke-opacity="1" stroke-width="1" stroke-linecap="square" stroke-linejoin="bevel" transform="matrix(1,0,0,1,0,0)"
font-family="Sans Serif" font-size="9" font-weight="400" font-style="normal" 
>
</g>
</g>
</svg>
